<svg xmlns="http://www.w3.org/2000/svg" viewBox="0 0 48 48" fill="none">
  <defs><linearGradient id="g" x1="4" y1="4" x2="44" y2="44" gradientUnits="userSpaceOnUse"><stop stop-color="#ff2d8f"/><stop offset="1" stop-color="#ff7ab8"/></linearGradient></defs>
  <path d="M6 16C5 10 7 5.5 13 3.5C10.5 7 10.5 11.5 12 16ZM42 16C43 10 41 5.5 35 3.5C37.5 7 37.5 11.5 36 16Z" fill="url(#g)"/>
  <path d="M42 34v5a3 3 0 0 1-3 3h-5M14 42H9a3 3 0 0 1-3-3v-5" stroke="url(#g)" stroke-width="3.2" stroke-linecap="round"/>
  <path d="M11 25h5l3-8 5 15 4-12 3 5h6" stroke="url(#g)" stroke-width="3.2" stroke-linecap="round" stroke-linejoin="round"/>
</svg>
